<?xml version="1.0" encoding="iso-8859-1"?>
<!-- Generator: Adobe Illustrator 18.0.0, SVG Export Plug-In . SVG Version: 6.00 Build 0)  -->
<!DOCTYPE svg PUBLIC "-//W3C//DTD SVG 1.1//EN" "http://www.w3.org/Graphics/SVG/1.1/DTD/svg11.dtd">
<svg version="1.1" id="_x31_" xmlns="http://www.w3.org/2000/svg" xmlns:xlink="http://www.w3.org/1999/xlink" x="0px" y="0px"
	 viewBox="0 0 512 512" style="enable-background:new 0 0 512 512;" xml:space="preserve">
<g>
	<rect style="fill:#F6B597;" width="512" height="512"/>
	<polygon style="opacity:0.1;fill:#231815;" points="512,223.435 512,512 268.7,512 174.233,417.535 307.2,284.565 440.165,151.6 	
		"/>
	<g>
		<path style="fill:#E7C9C8;" d="M465.07,205.75c0-36.46-29.56-66.015-66.03-66.015c-12.84,0-24.79,3.725-34.93,10.07
			c-24.49-24.766-61.31-27.295-110.5-27.295c-47.96,0-84.135,2.455-108.62,25.535c-9.49-5.28-20.403-8.31-32.033-8.31
			c-36.465,0-66.025,29.555-66.025,66.015c0,31.015,21.41,56.96,50.237,64.045c1.685,9.485,5.627,20.195,12.92,32.585
			c17.817,30.275,36.357,50.715,40.185,56.455v0.15c-2.34,5.8-3.832,10.285-3.832,12.3c0,8.905,1.675,22.765,17.332,24.645
			c-0.052,0.71-0.107,1.42-0.107,2.145c0,15.855,12.85,28.705,28.703,28.705h61.24h70.8c15.85,0,28.71-12.85,28.71-28.705
			c0-0.985-0.05-1.965-0.15-2.925c12.12-3.52,13.54-15.74,13.54-23.865c0-2.555-2.4-9.09-5.9-17.27
			c7.17-9.025,22.09-27.1,36.53-51.635c7.03-11.95,10.94-22.335,12.72-31.565C441.17,265.64,465.07,238.52,465.07,205.75z"/>
		<g>
			<g>
				<g>
					<path style="fill:#E8D1D2;" d="M192.37,369.37c-15.853,0-28.703,12.855-28.703,28.705c0,15.855,12.85,28.705,28.703,28.705
						h61.24v-57.41H192.37z"/>
					<path style="fill:#E7C9C8;" d="M324.41,369.37h-70.8v57.41h70.8c15.85,0,28.71-12.85,28.71-28.705
						C353.12,382.225,340.26,369.37,324.41,369.37z"/>
				</g>
				<g>
					<g>
						<path style="fill:#FADFDC;" d="M178.973,205.75c0,36.465-29.558,66.025-66.015,66.025c-36.465,0-66.025-29.56-66.025-66.025
							c0-36.46,29.56-66.015,66.025-66.015C149.415,139.735,178.973,169.29,178.973,205.75z"/>
						<path style="fill:#EFCDCC;" d="M152.182,206.71c0,19.02-15.42,34.445-34.445,34.445S83.293,225.73,83.293,206.71
							c0-19.02,15.42-34.445,34.445-34.445S152.182,187.69,152.182,206.71z"/>
					</g>
					<g>
						<path style="fill:#F2D7D6;" d="M333.03,205.75c0,36.465,29.55,66.025,66.01,66.025c36.47,0,66.03-29.56,66.03-66.025
							c0-36.46-29.56-66.015-66.03-66.015C362.58,139.735,333.03,169.29,333.03,205.75z"/>
						<path style="fill:#E4C3C3;" d="M359.82,206.71c0,19.02,15.42,34.445,34.44,34.445c19.03,0,34.45-15.425,34.45-34.445
							c0-19.02-15.42-34.445-34.45-34.445C375.24,172.265,359.82,187.69,359.82,206.71z"/>
					</g>
				</g>
				<polyline style="fill:#FADFDC;" points="169.413,307.16 117.737,260.295 182.8,164.625 253.61,131.125 253.61,204.78 
					253.61,360.765 150.275,360.765 150.275,307.16 159.838,309.075 				"/>
				<path style="fill:#604C3F;" d="M253.61,197.145c-91.857-19.14-107.167,28.705-101.428,63.15
					c4.245,25.485,27.748,36.355,27.748,36.355l-29.655,62.185c-3.828-5.74-22.368-26.18-40.185-56.455
					c-19.143-32.52-15.317-53.57-7.655-70.79c7.037-15.835,14.527-38.645,24.87-59.325c22.957-45.915,65.075-49.755,126.305-49.755
					V197.145z"/>
				<g>
					<polyline style="fill:#F2D7D6;" points="337.81,307.16 389.49,260.295 324.42,164.625 253.61,131.125 253.61,204.78 
						253.61,360.765 356.95,360.765 356.95,307.16 347.39,309.075 					"/>
					<path style="fill:#564236;" d="M253.61,197.145c91.86-19.14,107.17,28.705,101.43,63.15
						c-4.24,25.485-27.74,36.355-27.74,36.355l29.65,62.185c3.83-5.74,22.37-26.18,40.19-56.455c19.14-32.52,15.31-53.57,7.65-70.79
						c-7.04-15.835-14.53-38.645-24.87-59.325c-22.96-45.915-65.07-49.755-126.31-49.755V197.145z"/>
				</g>
				<path style="fill:#FAD9D7;" d="M179.93,296.65c0,0-33.487,65.06-33.487,74.635c0,9.57,1.912,24.875,21.05,24.875
					c19.138,0,93.767,0,93.767,0V283.255C244.04,283.255,196.18,273.69,179.93,296.65z"/>
				<path style="fill:#FAD9D7;" d="M333.03,296.65c0,0,33.48,65.06,33.48,74.635c0,9.57-1.91,24.875-21.05,24.875
					c-19.14,0-93.77,0-93.77,0V283.255C268.92,283.255,316.77,273.69,333.03,296.65z"/>
			</g>
			<g>
				<path style="fill:#564236;" d="M203.84,240.085h-15.52l5.02,6.805c-0.65,1.445-1.02,3.025-1.02,4.7
					c0,6.36,5.15,11.52,11.52,11.52c6.35,0,11.51-5.16,11.51-11.52C215.35,245.24,210.19,240.085,203.84,240.085z"/>
				<path style="fill:#564236;" d="M323.68,240.085h-15.52c-6.35,0-11.51,5.155-11.51,11.505c0,6.36,5.16,11.52,11.51,11.52
					c6.37,0,11.52-5.16,11.52-11.52c0-1.675-0.37-3.255-1.02-4.7L323.68,240.085z"/>
			</g>
			<g>
				<path style="fill:#BAA089;" d="M239.85,322.475c-3.82,0-12.44-11.48-19.13-9.565c-6.7,1.92,1.91,13.4,10.52,13.4
					C239.85,326.31,239.85,322.475,239.85,322.475z"/>
				<path style="fill:#BAA089;" d="M272.15,322.475c3.82,0,12.44-11.48,19.13-9.565c6.7,1.92-1.91,13.4-10.52,13.4
					C272.15,326.31,272.15,322.475,272.15,322.475z"/>
			</g>
		</g>
	</g>
</g>
</svg>
